# xmcd
#
# Track frame offsets:
# 150
# 13140
# 24390
# 43590
# 56475
# 68535
# 79842
# 92380
# 104872
# 118550
# 130555
# 141652
# 153692
# 163240
# 174475
# 185992
# 198707
# 215335
# 227757
# 242417
# 255335
# 269375
# 281075
# 295252
#
# Disc length: 4110 seconds
#
#
# Revision: 0
# Processed by: cddbd v1.5.2PL0 Copyright (c) Steve Scherf et al.
# Submitted via: FreeRIP 2.942 
#
DISCID=64100c18
DTITLE=Various Artist - RHYTHM and BLUES - BEST HIT
DYEAR=1995
DGENRE=R&B
TTITLE0=WHEN A MAN LOVES A WOMAN
TTITLE1=RESPECT
TTITLE2=I CAN'T STOP LOVING YOU
TTITLE3=DON'T PLAY THAT SONG
TTITLE4=I WAS MADE TO LOVE HER
TTITLE5=HOLD ON COMIN
TTITLE6=PLEASE PLEASE PLEASE
TTITLE7=SUNNY
TTITLE8=STAND BY ME
TTITLE9=ONLY YOU
TTITLE10=LAND OF A THOUSAND DANCES
TTITLE11=SOUL MAN
TTITLE12=WONDERFUL WORLD
TTITLE13=SAVE THE LAST DANCE FOR ME
TTITLE14=TRY ME
TTITLE15=YOU SEND ME
TTITLE16=GEORGIA ON MY MIND
TTITLE17=THE DOCK OF THE BAY
TTITLE18=A CHANGE IS GONNA COME
TTITLE19=UNCHAIN MY HEART
TTITLE20=LOVE ME TENDER
TTITLE21=WHERE DID OUR LOVE GO
TTITLE22=MUSTANG SALLY
TTITLE23=UPTIGHT (EVERYTHING'S ALRIGHT)
EXTD=TOKYO SOFT INC.\nMADE IN JAPAN
EXTT0=
EXTT1=
EXTT2=
EXTT3=
EXTT4=
EXTT5=
EXTT6=
EXTT7=
EXTT8=
EXTT9=
EXTT10=
EXTT11=
EXTT12=
EXTT13=
EXTT14=
EXTT15=
EXTT16=
EXTT17=
EXTT18=
EXTT19=
EXTT20=
EXTT21=
EXTT22=
EXTT23=
PLAYORDER=
